<?xml version="1.0" encoding="utf-8"?>
<!-- Generator: Adobe Illustrator 25.3.1, SVG Export Plug-In . SVG Version: 6.00 Build 0)  -->
<svg version="1.1" baseProfile="tiny" id="Layer_1" xmlns="http://www.w3.org/2000/svg" xmlns:xlink="http://www.w3.org/1999/xlink"
	 x="0px" y="0px" width="272.5px" height="247.4px" viewBox="0 0 272.5 247.4" overflow="visible" xml:space="preserve">
<g>
	<g>
		<g>
			<path fill="#222222" d="M98.9,243.2c-43.4,0-73.4-20.1-88.2-59.7C-11.1,125,27.1,57.7,103.5,19.8c38.7-19.2,86.1-17,120.8,5.6
				c29.1,19,44.3,49.1,42.7,84.7l0,0c-3.9,86.2-56.2,108.2-114,124.7C133.1,240.4,115.1,243.2,98.9,243.2z M159.6,16.7
				c-17.6,0-35.5,4-51.7,12C24.2,70.2,3.7,136.3,20,180.1c22.9,61.5,83.4,58.5,130.2,45.1c56.3-16.1,103.2-35.9,106.8-115.6
				c1.4-32-12.1-58.9-38.2-75.9C201.5,22.4,180.7,16.7,159.6,16.7z"/>
		</g>
	</g>
	<g>
		<g>
			<path fill="#222222" d="M108,207.6c0,0-0.1,0-0.1,0c-9.7-0.1-15.4-10-20.1-18.1c-1.8-3.2-4.6-7.9-6-8.6
				c-4.4-1.3-11.4,0.6-17.6,2.4c-8.3,2.4-16.1,4.6-20.5-0.9c-4.4-5.5-4.9-14.3-5.4-22.9c-0.2-4.3-0.7-11.6-2-13l6.6-7.4
				c4.4,3.9,4.8,11.3,5.3,19.8c0.3,6.1,0.8,13.7,3,16.9c1.7,0.3,6.8-1.1,10.3-2.1c7.5-2.1,16-4.6,23.3-2.3c4.9,1.5,8,6.9,11.6,13.1
				c3.2,5.5,7.5,13.1,11.5,13.1c0,0,0,0,0,0c4.8,0,10.3-6.4,15.1-12.1c5.2-6.1,10.1-11.9,16.2-12.6c9.3-1.1,18.3,4.6,26.1,9.6
				c3.4,2.1,8.9,5.7,10.7,5.5c14.6-6,20.5-18.6,23.7-25.4l0.8-1.6l9,4.3l-0.7,1.5c-3.5,7.5-10.7,23-29,30.5
				c-5.9,2.4-12.3-1.6-19.7-6.4c-6.5-4.1-13.8-8.8-19.6-8.1c-2.2,0.3-6.6,5.4-9.7,9.1C124.5,199.3,117.4,207.6,108,207.6z"/>
		</g>
		<g>
			<g>
				
					<rect x="20.1" y="140.4" transform="matrix(0.527 -0.8498 0.8498 0.527 -103.1997 101.38)" fill="#222222" width="38.8" height="6"/>
			</g>
		</g>
		<g>
			<g>
				
					<rect x="202.4" y="144.6" transform="matrix(0.8103 -0.586 0.586 0.8103 -57.1489 151.469)" fill="#222222" width="6" height="38.8"/>
			</g>
		</g>
	</g>
	<g>
		<path fill="#222222" d="M101.3,139.5c-3,0-5.9-0.6-8.7-2c-13.1-6.3-16.5-25.4-7.8-43.4c4-8.3,10-15.1,16.9-19.1
			c7.5-4.4,15.3-5.1,21.9-1.9c13.1,6.3,16.5,25.4,7.8,43.4h0C124.5,130.7,112.5,139.5,101.3,139.5z M114.9,81.1
			c-2.5,0-5.3,0.8-8.2,2.5c-5.2,3-9.8,8.3-13,14.8c-6.1,12.6-4.6,26.4,3.2,30.2c7.8,3.7,19.5-3.8,25.5-16.4
			c6.1-12.6,4.6-26.4-3.2-30.2C117.9,81.4,116.4,81.1,114.9,81.1z"/>
	</g>
	<g>
		<path fill="#222222" d="M168.7,147.4c-14.5,0-25.8-15.7-25.8-35.8c0-20.1,11.4-35.8,25.8-35.8c14.5,0,25.8,15.7,25.8,35.8
			C194.5,131.7,183.2,147.4,168.7,147.4z M168.7,85.9c-8.6,0-15.9,11.8-15.9,25.8c0,14,7.3,25.8,15.9,25.8
			c8.6,0,15.9-11.8,15.9-25.8C184.6,97.7,177.3,85.9,168.7,85.9z"/>
	</g>
	<g>
		<circle fill="#222222" cx="106.4" cy="102.9" r="8.9"/>
	</g>
	<g>
		<circle fill="#222222" cx="168.7" cy="101.5" r="8.9"/>
	</g>
</g>
</svg>
