<?xml version="1.0" encoding="utf-8"?>
<!-- Generator: Adobe Illustrator 25.3.1, SVG Export Plug-In . SVG Version: 6.00 Build 0)  -->
<svg version="1.1" baseProfile="tiny" id="Layer_1" xmlns="http://www.w3.org/2000/svg" xmlns:xlink="http://www.w3.org/1999/xlink"
	 x="0px" y="0px" width="211.9px" height="247.4px" viewBox="0 0 211.9 247.4" overflow="visible" xml:space="preserve">
<g>
	<g>
		<g>
			<path fill="#222222" d="M122.4,240.8c-28.5,0-56.5-18-82.6-53.5c-31-42.2-55.2-85.1-12-146.3c17.8-25.2,44.1-37.8,74-35.3
				c35.7,2.9,69.4,26.6,85.8,60.3c32.4,66.8,22.8,133.3-23.2,161.8C150.4,236.5,136.3,240.8,122.4,240.8z M94.6,12.1
				c-24.7,0-46.3,11.5-61.3,32.8c-40.6,57.6-18.6,96.8,12,138.4c25.4,34.6,66.1,69.4,115.6,38.8c35.1-21.8,56.6-79,20.7-153.1
				c-15.3-31.6-46.8-53.8-80.2-56.5C99,12.2,96.8,12.1,94.6,12.1z"/>
		</g>
	</g>
	<g>
		<g>
			<path fill="#222222" d="M126.2,219.6c-4.2,0-8.2-2.5-12.7-5.4c-3.7-2.3-7.9-5-12.7-6.6c-4.1-1.3-8-2.3-11.8-3.3
				c-9.5-2.4-17.8-4.5-22.7-11c-4.5-6-5.2-13.5-5.9-20.6c-0.5-5.4-1-10.5-3.1-14.6c-2.5-5-8.5-8.1-16-12.1c-2.6-1.4-5.2-2.8-8-4.4
				l4.6-8c2.6,1.5,5.2,2.9,7.7,4.2c8.3,4.4,16.1,8.5,19.9,16.1c2.9,5.6,3.5,11.8,4,17.9c0.6,6.2,1.2,12,4.1,16
				c2.9,3.9,9.4,5.5,17.5,7.6c3.8,0.9,8,2,12.4,3.5c6,2,10.8,5.1,14.8,7.5c3,1.9,6.4,4.1,8,3.9c4.8-0.6,6-4,7.8-11.8
				c0.6-2.6,1.2-5.3,2.2-7.6c4.8-11,14.9-11.2,25.1-9.7l-1.3,9.1c-11.7-1.7-13.8,0.8-15.3,4.2c-0.7,1.6-1.2,3.7-1.7,6
				c-1.6,7-4,17.5-15.7,18.9C127,219.5,126.6,219.6,126.2,219.6z"/>
		</g>
		<g>
			<g>
				
					<rect x="142.8" y="183.1" transform="matrix(0.1496 -0.9888 0.9888 0.1496 -47.025 317.004)" fill="#222222" width="35.9" height="5.5"/>
			</g>
		</g>
		<g>
			<g>
				
					<rect x="17.7" y="134.8" transform="matrix(0.4921 -0.8706 0.8706 0.4921 -101.683 100.9432)" fill="#222222" width="35.9" height="5.5"/>
			</g>
		</g>
	</g>
	<g>
		<path fill="#222222" d="M136.5,153.3c-1.2,0-2.4-0.1-3.6-0.4c-12.4-2.7-19.2-18.2-15.6-35.4C121,100.4,133.6,89,146,91.7
			c12.4,2.7,19.2,18.2,15.6,35.4C158.3,142.5,147.7,153.3,136.5,153.3z M142.5,100c-6.9,0-14.2,8.3-16.6,19.4
			c-2.6,12,1.5,23.4,8.9,25c7.4,1.6,15.8-7.2,18.3-19.2c2.6-12-1.5-23.4-8.9-25C143.6,100.1,143,100,142.5,100z"/>
	</g>
	<g>
		<path fill="#222222" d="M86.1,122.7c-4.2,0-8.1-1.2-11.2-3.7c-10-7.8-9.5-24.7,1.3-38.6c4.9-6.4,11.3-11.1,18-13.3
			c7.3-2.4,14-1.5,19.1,2.4c10,7.8,9.5,24.7-1.3,38.6c-4.9,6.4-11.3,11.1-18,13.3C91.3,122.2,88.6,122.7,86.1,122.7z M102,74.5
			c-1.6,0-3.3,0.3-5.1,0.9c-5,1.6-9.9,5.3-13.8,10.3c-7.5,9.7-8.8,21.8-2.8,26.4c2.7,2.1,6.6,2.4,11,1c5-1.6,9.9-5.3,13.8-10.3
			c7.5-9.7,8.8-21.8,2.8-26.4C106.3,75.1,104.3,74.5,102,74.5z"/>
	</g>
	<g>
		<circle fill="#222222" cx="148.2" cy="129.1" r="7.8"/>
	</g>
	<g>
		<circle fill="#222222" cx="83.2" cy="95.6" r="7.8"/>
	</g>
</g>
</svg>
