<?xml version="1.0" encoding="utf-8"?>
<!-- Generator: Adobe Illustrator 25.3.1, SVG Export Plug-In . SVG Version: 6.00 Build 0)  -->
<svg version="1.1" baseProfile="tiny" id="Layer_1" xmlns="http://www.w3.org/2000/svg" xmlns:xlink="http://www.w3.org/1999/xlink"
	 x="0px" y="0px" width="200px" height="247.4px" viewBox="0 0 200 247.4" overflow="visible" xml:space="preserve">
<g>
	<g>
		<path fill="#222222" d="M105.4,243.7c-14,0-25.4-6.3-32-18.2c-17.3-31.1-35.3-36.8-48.4-41.1C5,178-4.1,172.6,8,119.9
			c0.1-0.4,0.2-1,0.4-1.8C21.2,57,53.9,17.3,100.2,6.5c23.3-5.4,43.6-0.5,60.2,14.6c31.6,28.6,40.1,85.3,36.1,116.4l-3.7-0.5
			l3.7,0.5c-4.6,35.3-19.3,59.1-30.9,72.8c-14.5,17.3-32.9,29.1-50.3,32.5C111.9,243.4,108.6,243.7,105.4,243.7z M117.9,11.8
			c-5.1,0-10.4,0.6-15.9,1.9C58.5,23.9,27.9,61.5,15.7,119.6c-0.2,0.8-0.3,1.4-0.4,1.9c-5.5,23.8-6.6,37.8-3.8,45.3
			c2.2,5.9,6.7,7.6,15.9,10.6c14.3,4.6,33.8,10.9,52.6,44.5c6.5,11.7,18.5,16.4,33.9,13.5c31-6,68-42.7,75.3-98.9
			c2.2-16.8,0.4-38.3-4.8-57.6c-4.2-15.8-12.7-37.7-28.9-52.4C144.6,16.8,132,11.8,117.9,11.8z"/>
	</g>
	<g>
		<g>
			<path fill="#222222" d="M73.2,186.8c-1.5,0-3-0.4-4.6-1.5c-4.4-2.9-4-9.1-3.6-16.4c0.4-6.7,0.8-14.2-1.9-20
				c-1-2.2-5.5-4.3-9.8-6.4c-5.9-2.8-12.7-6.1-16.3-11.7l6.1-3.9c2.5,3.9,8,6.5,13.3,9.1c5.7,2.7,11.1,5.3,13.2,9.8
				c3.5,7.5,3,16.4,2.6,23.5c-0.2,3.6-0.5,8.9,0.4,10c1.7,1.1,6-3.9,9.8-8.4c3.5-4.1,7.4-8.7,12.1-12.4c9.3-7.2,14.1-9.1,17.5-7
				c3.6,2.2,2.7,6.8,2.1,10.2l0,0.2c-0.5,2.6-0.4,4.4,0.3,5.1c0.4,0.4,2.2,1.6,8.7,0.3c2.9-0.6,6,1.1,10,3.3
				c4.6,2.5,10.4,5.7,15,4.3l2.1,6.9c-7.5,2.3-15.1-1.8-20.6-4.8c-1.8-1-4.3-2.4-5.2-2.5c-7.2,1.4-12.1,0.7-15-2.2
				c-3.8-3.7-2.7-9.6-2.4-11.6l0-0.2c0.1-0.5,0.2-1.2,0.3-1.9c-1.5,0.7-4.1,2.3-8.4,5.6c-4.1,3.2-7.8,7.5-11,11.3
				C83.3,181.2,78.5,186.8,73.2,186.8z"/>
		</g>
		<g>
			<g>
				
					<rect x="147" y="164.2" transform="matrix(0.9415 -0.337 0.337 0.9415 -51.3783 60.7116)" fill="#222222" width="4.3" height="28.2"/>
			</g>
		</g>
		<g>
			<g>
				
					<rect x="26.1" y="126.7" transform="matrix(0.8603 -0.5098 0.5098 0.8603 -60.0809 38.5224)" fill="#222222" width="28.2" height="4.3"/>
			</g>
		</g>
	</g>
	<g>
		<path fill="#222222" d="M87.6,104.6c-3.2,0-6.5-0.4-9.6-1c-6.6-1.3-15.7-6.4-20.2-14.3c-2.8-5-3.3-10.4-1.4-15.6
			c0.8-2.3,1.6-5.4,2.4-8.6c2.6-10.4,5.6-22.3,14.3-25.1c5.3-1.7,11.3,0.3,18.5,6.3c16,13.3,22.2,27.3,19.1,42.6
			C108.1,100.4,98.2,104.6,87.6,104.6z M76.6,46.8c-0.5,0-1,0.1-1.4,0.2c-4.8,1.6-7.4,12.1-9.4,19.9c-0.9,3.4-1.7,6.6-2.6,9.3
			c-1.1,3.2-0.8,6.3,0.9,9.4c3.1,5.6,10.2,9.7,15.2,10.7c5,1,21.3,3.4,23.8-9c2.5-12.4-2.9-23.9-16.6-35.4
			C83.7,49.5,79.8,46.8,76.6,46.8z"/>
	</g>
	<g>
		<circle fill="#222222" cx="83.8" cy="77.4" r="5.4"/>
	</g>
	<g>
		<path fill="#222222" d="M154.7,139.8c-16.6,0-28.5-5.6-36-16.9l0,0c-4.3-6.5-4.4-13.6-0.3-20.6c3.6-6.2,9.6-10.7,12.9-12.9
			c5.6-3.7,15.7-6.6,24.4-4.2c5.5,1.5,9.7,5,12,10c1.1,2.2,2.7,4.9,4.4,7.8c5.5,9.2,11.8,19.7,7.7,27.8c-2.5,5-8.3,7.8-17.5,8.6
			C159.7,139.7,157.1,139.8,154.7,139.8z M124.9,118.7c7,10.5,19,14.9,36.7,13.3c4.4-0.4,10-1.5,11.6-4.6c2.3-4.5-3.3-13.8-7.4-20.7
			c-1.8-3-3.5-5.8-4.7-8.4c-1.4-3-3.9-5.1-7.3-6c-6.1-1.7-14,0.4-18.3,3.2c-4.6,3.1-8.5,6.9-10.6,10.4
			C122.2,110.5,122.2,114.7,124.9,118.7L124.9,118.7z"/>
	</g>
	<g>
		<circle fill="#222222" cx="145.9" cy="111.5" r="5.6"/>
	</g>
</g>
</svg>
