<?xml version="1.0" encoding="utf-8"?>
<!-- Generator: Adobe Illustrator 25.3.1, SVG Export Plug-In . SVG Version: 6.00 Build 0)  -->
<svg version="1.1" baseProfile="tiny" id="Layer_1" xmlns="http://www.w3.org/2000/svg" xmlns:xlink="http://www.w3.org/1999/xlink"
	 x="0px" y="0px" width="278.5px" height="247.4px" viewBox="0 0 278.5 247.4" overflow="visible" xml:space="preserve">
<g>
	<g>
		<circle fill="#222222" cx="96.8" cy="103.7" r="9.1"/>
	</g>
	<g>
		<g>
			<path fill="#222222" d="M100.5,243.6c-43.9,0-74.4-20.3-89.3-60.3C-10.9,124,27.9,55.7,105.6,17.2C144.8-2.3,192.9-0.1,228,22.8
				c29.4,19.2,44.8,49.6,43.1,85.6l0,0c-3.9,87.5-57,109.8-115.8,126.6C135.2,240.8,116.9,243.6,100.5,243.6z M162.5,11.9
				c-18.2,0-36.6,4.1-53.4,12.4C22.8,67.1,1.7,135.3,18.6,180.6c23.8,63.7,86.3,60.6,134.5,46.9c58-16.6,106.4-37,110.1-119.3
				c1.5-33.1-12.6-61.1-39.6-78.7C205.8,17.8,184.3,11.9,162.5,11.9z"/>
		</g>
	</g>
	<g>
		<g>
			<path fill="#222222" d="M94.3,221c-4,0-8.4-0.6-13-2.3c-11.1-3.9-16.4-12.2-20.2-18.1c-1.3-2-2.5-4-3.6-5
				c-8.9-8.7-16.6-18.5-13.4-31.3c0.5-2,1.2-4.1,1.9-6c3.1-8.8,3.4-11.7-0.7-14.7l6.3-8.7c11.2,8.2,7.1,19.5,4.5,27.1
				c-0.6,1.8-1.3,3.5-1.7,5.1c-1.4,5.3-0.1,10.6,10.5,20.9c1.9,1.9,3.5,4.3,5.1,6.8c3.3,5.2,7.1,11.1,14.7,13.8
				c10.6,3.8,19.3,0.3,27.7-3c2.9-1.1,5.6-2.2,8.4-3c5.5-1.5,10.9-2.3,16.2-3.1c7.8-1.2,15.1-2.2,21.9-5.4c2.7-1.3,5.5-3.1,8.5-5.2
				c7.2-4.8,16.2-10.8,27.8-10.8l0.1,10.8c-8.4,0-15.3,4.6-21.9,9c-3.4,2.2-6.5,4.3-9.9,5.9c-8.2,3.9-16.7,5.1-24.9,6.3
				c-5.2,0.8-10.1,1.5-14.9,2.8c-2.2,0.6-4.7,1.6-7.4,2.6C110.3,218.1,103,221,94.3,221z"/>
		</g>
		<g>
			<g>
				
					<rect x="27.6" y="136.2" transform="matrix(0.5646 -0.8254 0.8254 0.5646 -93.8811 100.7972)" fill="#222222" width="42" height="6.5"/>
			</g>
		</g>
		<g>
			<g>
				
					<rect x="174.6" y="180.3" transform="matrix(1.444974e-02 -0.9999 0.9999 1.444974e-02 9.2426 376.4139)" fill="#222222" width="42" height="6.5"/>
			</g>
		</g>
	</g>
	<g>
		<path fill="#222222" d="M102.7,138.7c-3.1,0-6.1-0.7-8.9-2c-13.4-6.4-16.9-25.9-8-44.4c4.1-8.5,10.2-15.4,17.3-19.6
			c7.7-4.5,15.7-5.2,22.4-2c6.7,3.2,11.1,9.9,12.4,18.7c1.2,8.1-0.4,17.2-4.5,25.7l0,0c-4.1,8.5-10.2,15.4-17.3,19.6
			C111.7,137.3,107.1,138.7,102.7,138.7z M116.7,78.9c-2.6,0-5.5,0.9-8.4,2.6C103,84.6,98.2,89.9,95,96.6c-6.2,12.9-4.7,27,3.2,30.9
			c3.6,1.7,8.1,1.2,12.8-1.6c5.3-3.1,10.1-8.5,13.3-15.2l0,0c3.2-6.7,4.5-13.7,3.6-19.8c-0.8-5.4-3.2-9.3-6.8-11
			C119.8,79.2,118.3,78.9,116.7,78.9z"/>
	</g>
	<g>
		<path fill="#222222" d="M171.7,146.8c-14.8,0-26.4-16.1-26.4-36.6s11.6-36.6,26.4-36.6s26.4,16.1,26.4,36.6
			S186.6,146.8,171.7,146.8z M171.7,83.8c-8.8,0-16.3,12.1-16.3,26.4s7.5,26.4,16.3,26.4s16.3-12.1,16.3-26.4S180.5,83.8,171.7,83.8
			z"/>
	</g>
	<g>
		<circle fill="#222222" cx="180.8" cy="119.3" r="9.1"/>
	</g>
</g>
</svg>
