<?xml version="1.0" encoding="utf-8"?>
<!-- Generator: Adobe Illustrator 25.3.1, SVG Export Plug-In . SVG Version: 6.00 Build 0)  -->
<svg version="1.1" baseProfile="tiny" id="Layer_1" xmlns="http://www.w3.org/2000/svg" xmlns:xlink="http://www.w3.org/1999/xlink"
	 x="0px" y="0px" width="576px" height="432px" viewBox="0 0 576 432" overflow="visible" xml:space="preserve">
<g>
	<g>
		<path fill="#222222" d="M89.6,391.7c25.7,1,37.7-36.9,49.9-65.3c7.5-17.5,5.8-71.8-3.6-93c-10.1,2.3-21,7.8-31.4,11.4
			c-0.4-1.9-0.8-3.8-1.2-5.7c39.9-15.4,79.8-30.9,119.7-46.3c0.4,1.9,0.8,3.8,1.2,5.8c-7.4,2.9-14.9,5.8-22.3,8.6
			c14.2,68.3,4.4,107.4-8.9,179.1c-1.1,0.1-2.2,0.2-3.3,0.3c-5.7-18.3-14.6-37.1-17.6-55.5c-29.3,25.2-36.9,73.3-87.4,67.9
			C-13.2,388.3,57.7,292,32.3,223.9C6.8,155.7,77,23.3,163.9,12.7c52.3-6.4,37.8,20.5,45.6,50.4c16.1-11.6,35.5-24.1,53-36
			c0.7,0.3,1.3,0.5,1.9,0.8c-28.7,48.7-57.5,97.3-86.3,146c-1-0.1-2.5,0.6-3.3,0C189,130,243.7,12.6,166.3,19.5
			c-27,2.4-13.2,25-35.8,63C114,110.2,64.7,185.9,88.8,225.2c24.1,39.3-5.3,89.1-12,117C67.6,380.2,66.7,390.8,89.6,391.7z"/>
	</g>
	<g>
		<path fill="#222222" d="M201.7,392.2c32.2-42.6,8.5-43.7,21.3-105.3c14.6-70.5,49.6-179.7,87.2-251.8c11.8,0.3,21.8,5.5,33,7.7
			c-10.4,127.4,60.6,247.2,30.4,357.8c6.3,3.1,12.7,6.2,19,9.3c-0.9,1.8-1.8,3.7-2.7,5.5c-36.5-17.8-72.9-35.7-109.4-53.5
			c0.9-1.8,1.8-3.7,2.7-5.5c9.4,4.6,18.9,9.2,28.3,13.8c11.7-40.1,5.5-52.3-4.7-89.8c-24.5-6.4-51.1-9.9-76.3-8.3
			c-8.2,17.3-6.9,57.9-2.9,70.1c8.3,25.8,14,28.5,34.5,31.9c0.4,1.1,1.1,3.5,1.6,5.1c-20,5.7-40.1,11.5-60.1,17.2
			C202.9,395.4,203.1,391.5,201.7,392.2z M232.9,263.8c24.3,2.7,47.9,4,71.8,9.6C289.5,223,273,169,277.8,116
			C256.6,164,249.8,214.4,232.9,263.8z"/>
	</g>
	<g>
		<path fill="#222222" d="M402.5,240.2c0.6,0,1.1-1.6,1.6-0.7c29,41.4,34.5,147.3,72.9,161.6c26.8,9.9,45.8-15.7,41.6-49.1
			c-4.5-36.7-11.9-54.7-57.1-83.2c-43.5-27.4-98.9-90.9-95.6-151.1c3.6-64.6,46.4-101.6,95-82.6c37.8,14.8,30.3,23,59.4,37.7
			c6.7-14.7,17.2-28.1,24.9-42.6c1.1-0.1,2.1-0.1,3.1-0.2c0.6,43.8,0.7,87.6,0.9,131.5c-1.3,0.3-1.3,1.5-3.3,1
			c-9.9-71-24.3-84.9-78.3-117.3c-32.1-19.3-42.2-11.3-56.4,15.1c-18.8,35-0.1,65.4,34.4,89.4c43,29.8,83.5,70.6,95.8,123.7
			c13.8,59.5,3.4,132.6-60.8,134.9c-45.9,1.6-26.1-36.1-38.8-59.8c-12,11-26.8,22.4-40.4,32.9c-1.1-0.4-2.2-0.8-3.3-1.3
			C422.8,316.2,424.3,304.9,402.5,240.2z"/>
	</g>
</g>
</svg>
