<?xml version="1.0" encoding="utf-8"?>
<!-- Generator: Adobe Illustrator 25.3.1, SVG Export Plug-In . SVG Version: 6.00 Build 0)  -->
<svg version="1.1" baseProfile="tiny" id="Layer_1" xmlns="http://www.w3.org/2000/svg" xmlns:xlink="http://www.w3.org/1999/xlink"
	 x="0px" y="0px" width="576px" height="247.4px" viewBox="0 0 576 247.4" overflow="visible" xml:space="preserve">
<g>
	<g>
		<path fill="#222222" d="M169.9,181.4c-0.6,1.6-3.8,4-8.9,7c-3.9,2.3-7.4,3.7-7,1.5c0.1-0.7,0.8-1.8,1.1-3.5
			c0.3-1.7-2.2-1.7-6.2-0.7c-16,2.6-24.8,18.7-54.6,42.7c-13.3,11.6-24.2,5.6-37.2-8.7c-12.8-15.6-27.6-39.6-42.8-93.2
			C2.9,82.4,1.8,34.2,15.1,18.5C27.9-0.2,55,13.7,89.2,24.4c44,15.6,56.8,45.7,74.4,53.4c4.5,1.9,8.1,1.5,8.5-3.1
			c0.2-2.9-0.2-6.4-0.1-7.3c0.5-6.3,4.3-7.6,10.1-5c5.2,2.3,9.4,6.8,8.7,12.2c-0.3,2.9-3.5,18.7-5,28.1c-1.1,6.1-1,12.1-1.6,16.3
			c-0.9,5.6-3.2,11.3-15.2,11c-23.5-3.6-38.8-27.9-49.4-54.9C111,52.5,105.8,44,89.8,35.9C71.7,28.1,63.4,30.6,69.9,71
			c9.8,67.9,18.3,121.5,35.2,116.2c13.9-1.7,24.4-11.6,24.9-27.9c0.2-13.2-2.7-18.3-11.2-23.6c-2.2-1.4-9.5-4.9-11.6-6.2
			c-5.6-3.4-7.9-11.1-8.2-14.8c-0.4-5.2,2.2-8.1,7.6-4.3c11.7,8.2,32.1,25.8,48.2,30.4c14.4,6.6,35.5-2.9,40.9-9.6
			c3.7-3.1,7-6,6.2-3.1c-0.8,2.9-3.7,7.8-8.4,12.3c-1.7,1.6-3.9,3.3-5.2,4.4c-10.3,6.7-12.9,9.4-15.5,22.3
			C170.5,177.2,170.4,179.9,169.9,181.4z"/>
	</g>
	<g>
		<path fill="#222222" d="M198.3,206.4c-5.4-0.4-7.6-2.4-6.9-7.8c1.1-4.6,18.3-39.2,33.7-68.8c15.7-30.8,29.7-56.6,30.9-71.5
			c0.6-7.6-6.1-9.2-10.4-8.9c-2.5,0.2-5.7,1.3-8,1.6c-5.6,0.9-8-1.7-7.5-5c0.5-3.1,3.7-6.2,9.1-6.6c8.5-0.8,38.6-2.1,55.2-2.7
			c15.3-0.7,29.5-4,32.9-4.4c6.1-0.6,11,4.9,11.8,18.7c1.3,24.1,9.2,62,20.6,89.5c11.3,28.7,26.1,46.8,38,59.8c5,5.4,8,8.3,8.6,12.5
			c0.6,4.1-1.6,7.3-6.4,6.8c-7.8-0.7-26.4-3-46-4.2c-16-1.2-52.8-2.4-56.3-2.5c-6.7-0.4-8.9-4.7-8.9-10.1c0.1-5.4,3.5-8.8,8.8-7.6
			c2.5,0.5,5.3,2,11.9,3.3c7.2,1.3,12.7-1.2,12.2-11.3c-0.7-15.8-4.3-18.2-34.7-30.9c-26.7-10.6-29.6-5.9-30,3.4
			c-1,19.7,17.5,28.7,17.3,40.8c-0.1,5.9-2.8,10.7-8.9,10.3c-4.5-0.2-26-4.4-36.1-5C217.8,205.2,204.6,206.9,198.3,206.4z
			 M302.9,145.8c25.9,11.8,28,6.8,27.9-0.1c-0.4-11.2-8.1-48.1-15.6-68c-4.7-12.2-6.5-14.6-10.6-15.4c-12-1-22.1,28.7-22.9,58.3
			C281.5,131.8,282.8,136.4,302.9,145.8z"/>
	</g>
	<g>
		<path fill="#222222" d="M428.5,237.6c-6,2-11.7,1.3-12.8-3c-1.5-5.2-3.2-20.8-5.4-31.4c-2-9.7-5.3-17.1-6.1-22.1
			c-1-6.3,0.7-11.2,9-12.6c20.7-2,58.2,34.2,101.6,15.6c11.3-5,19.8-14.4,14.9-27c-4.5-11.2-13.4-17.4-54-5
			c-53.6,17.1-74.5-6.5-77.9-45.4c-3-35,14.1-59,52.1-71.8c28.3-7.7,41.6,7.3,50.2,4.7c3.5-0.9,5.3-2.8,4.5-5.5
			c-0.6-2-1.5-3.1-2-4.8c-1.4-4.7,0.7-7.6,4.3-8c4.7-0.5,7.4,1.4,9.6,7.7c2.6,7.2,3.9,12.8,7.2,21.5c2,5.4,6.2,14.8,7.5,18.2
			c2.3,5.8,1,9.8-4.2,10.9c-23.2,6.3-51.2-29.9-76.6-23.5c-11.6,3.9-18.4,13.5-16.6,26.5c1.7,11.6,9,20.6,43.1,13.6
			c51-12.4,74,5.4,88.5,40.4c15.3,34.6-4.9,47.7-43.3,66.2c-41.9,17.1-65.1,5.8-79.9,11.6c-6.3,2.4-8.9,5.6-7.9,9
			c0.4,1.2,1.6,2.9,2,4.3C437.7,231.9,434.2,235.7,428.5,237.6z"/>
	</g>
</g>
</svg>
