<?xml version="1.0" encoding="utf-8"?>
<!-- Generator: Adobe Illustrator 25.3.1, SVG Export Plug-In . SVG Version: 6.00 Build 0)  -->
<svg version="1.1" baseProfile="tiny" id="Layer_1" xmlns="http://www.w3.org/2000/svg" xmlns:xlink="http://www.w3.org/1999/xlink"
	 x="0px" y="0px" width="576px" height="372.3px" viewBox="0 0 576 372.3" overflow="visible" xml:space="preserve">
<g>
	<g>
		<path fill="#222222" d="M24.1,99.9c6.7-17.8,12.6-27.1,22-39.1s18.7-18.6,29.8-25.4c11.2-6.8,21.9-10.3,33.5-12.8
			s21.1-2.8,32.5-0.7c11.4,2.1,21,5.3,31.6,11.5c10.6,6.2,21.8,14.8,29.4,25.6s12.4,22.9,13.6,36.4c1.2,13.5-2,25.7-8.3,38.2
			c-2,3.9-5.8,10.1-8,14.4c-14.3-7.5-28.5-15-42.6-22.6c2.2-4.2,5.9-10.7,7.5-14.7c4.3-10.9,4.9-19.6-3-28.2
			c-7.9-8.7-17.1-12.6-28.9-13.2c-11.9-0.6-22.1,0.6-33.4,7.6c-11.3,7-18.3,14.6-24.4,29.2c-23.5,55.7-26.3,119.5-10,176.9
			c4.3,15.1,9.4,18,20,23.5c10.7,5.6,22.5,5.5,33.4,5.1s21-1.4,29.6-8.2s7.3-14.6,4.1-26.2c-4.4-15.8-13.7-41.1-8.8-58.9
			c-13.2-4.8-25.1-10.7-37-18.1c7.3-12.3,14.4-24.5,21.9-36.7c24,14.7,48.1,26.2,74.1,37.5c-15.1,27-13.3,51.9-5.1,78.9
			c4.4,14.5,6.2,22.5,3,34.2c-3.1,11.7-8.1,17.7-16.9,24.5c-8.7,6.9-19.1,11-29.4,14.7c-10.4,3.6-19.9,5.8-31.2,6.6
			c-11.3,0.8-24,0.4-35.6-1.6c-11.6-2-23.9-3.6-34.3-9.7c-10.3-6.1-15.6-10.3-22.6-22.3c-7-12-10.2-18.9-13.8-37.9
			C5.1,229.4,1.9,158.3,24.1,99.9z"/>
	</g>
	<g>
		<path fill="#222222" d="M219.5,362.4c-38.7-133.4,104.2-190.2,7.2-316c8.6-9.9,16.9-19.9,25.3-29.9
			c177.8,97.5,60.1,225.2,159.9,337.3c-16.8,3.2-33.4,6.8-50.2,9.7c-18.6-23.2-37.3-46.2-41.5-75.1c-19.8-10.1-34.3-20.4-56.9-19
			c-7,24.3-8.3,46.6-0.9,72.3C247.9,348.2,233.8,355.5,219.5,362.4z M320.7,244.1c20.7-70.6-1.8-57.8-19.9-117.9
			c-0.3,0.1-0.6,0.1-0.9,0.2c0.3,58.4,0.8,47.3-22.8,98.3C294.2,225.7,306.3,235.5,320.7,244.1z"/>
	</g>
	<g>
		<path fill="#222222" d="M553.4,163.8c-14.8-7.2-29.4-14.5-44.1-21.7c1.4-3.2,1.9-6.7,2.4-10.3c2.1-14.8-3.1-23.3-12.7-35.9
			c-9.7-12.7-24.3-25.1-37.3-32.4c-7-3.9-10.4-4.3-15.9-3.2c-5.5,1.1-7.2,3.7-10.7,7.4c-3.5,3.7-6,9-8.1,14.3
			c-2.1,5.3-4.5,12-5.3,17.9s-1.3,12.4-0.4,18.2c0.9,5.8,1.9,9.1,5.5,14.3c3.6,5.2,7.1,8.7,13.4,13c6.3,4.2,14.9,8.2,23.4,11.4
			c12.4,4.7,33.2,12.3,44.3,17.2c12.8,5.6,21.5,10,30.4,17.2c8.9,7.2,13.9,12.4,19.3,21.5c5.4,9.1,7.7,16.8,10.1,27.7
			c2.5,10.9,3.7,22.9,2.2,34.8c-1.8,13.7-4.2,29.7-9.8,42c-5.6,12.3-11.4,22.4-21.9,30.5c-10.5,8.1-20,13.2-34.6,15.3
			c-14.6,2.2-31.9-0.1-47.8-5.6c-12-4.2-25.9-12.1-35.6-21.4c-9.7-9.3-17-19-22-30.9c-5-11.9-7.3-22-7.1-34.2
			c0.2-12.1,3.4-20.5,9.1-31c2.3-4.2,6.3-10.2,8.8-14.7c14.1,8.9,28,18.2,41.8,27.5c-2,4.1-5.7,8.5-7.1,12.6
			c-3.4,9.7-4.2,15.7-0.7,26.8c3.5,11.1,15.5,18.9,26.9,22.7c7.6,2.5,17,3.9,24.1,2.5c7.1-1.4,10.9-3.4,15.6-7.8
			c4.7-4.5,6.9-9.3,9-15.7c2-6.4,3.4-14.7,4.1-21.3c0.8-7.7,0.4-16.7-1.5-23.3c-1.9-6.6-3.4-10.7-7.1-15.5
			c-3.7-4.9-6.3-6.8-11.9-10.2c-5.6-3.4-10.2-5.5-17.9-8.9c-11-4.9-31.2-13-41.9-18.4c-26-12.9-48.5-31-59.9-55.5
			c-11.4-24.4-8.2-42.1-1.7-64.1c3.9-13.1,10.9-24.9,17.9-34.9c7.1-10,14.8-18.2,24.4-23.7c9.6-5.5,17-8.7,28.4-8.3
			s19.8,3.9,31.3,11.2c9.7,6.1,21.9,18.8,30.6,28.5c8.7,9.7,20.4,22.8,27.2,32.8c13.9,20.4,24.7,37.5,21.2,60.9
			C560.8,150.2,555.6,157,553.4,163.8z"/>
	</g>
</g>
</svg>
