<?xml version="1.0" encoding="utf-8"?>
<!-- Generator: Adobe Illustrator 25.3.1, SVG Export Plug-In . SVG Version: 6.00 Build 0)  -->
<svg version="1.1" baseProfile="tiny" id="Layer_1" xmlns="http://www.w3.org/2000/svg" xmlns:xlink="http://www.w3.org/1999/xlink"
	 x="0px" y="0px" width="576px" height="267.3px" viewBox="0 0 576 267.3" overflow="visible" xml:space="preserve">
<g>
	<g>
		<path fill="#222222" d="M140.7,232.8c-0.1,5.9-1.2,8.5-4.1,7.7c-2.1-0.6-6.2-4.2-8.1-10c-0.5-1.8-0.9-4.5-1.3-8.8
			c-0.3-4.6-2.7-7.4-6.4-7.9c-18-1.8-12.3,19.3-29.9,13.5c-24.9-3.9-31.4-10.2-68.4-67.3c-19.1-21.8,2.4-61,16.2-77
			C54.4,67.6,50.3,56.8,88.5,46c56.9-14.3,92.6,5.7,106,1.5c4.3-1.2,7.6-4.2,6.3-10c-0.9-3.6-3.1-7.3-3.5-8.4
			c-3.3-7.5-0.9-12,7.1-14c7-1.8,14,0.1,14.6,8.1c0.9,4.3-0.5,28.3-5.4,43.2c-2.7,9.6-5.9,19.5-9,26.6c-4.6,10.4-9.2,17.6-18.8,19.4
			c-19.9,2.1-23.3-7.8-31.3-29.7C145,64.5,128,58.3,109.8,62.5C86.5,67.5,98.8,84.7,87,119.9c-29,55.1-19.5,82.6-4.2,84.8
			c10.6,1.9,16.9-9.6,29.7-31.3c9.9-16.6,11.1-20.8,2.6-20.8c-2.1,0-10,1.2-12.1,1.2c-5.4,0-3.5-5.9-1.3-9.2
			c3.1-4.7,9.1-9.3,14.7-9.6c12.1-0.6,30.6,0.3,44.9-0.4c13.2-0.6,31.3-3.3,35.3-3.6c2.8-0.2,4.2,3.3,1.2,10.8
			c-3,7.5-6.8,11-11.3,11c-1.6,0-3.5-0.3-4.8-0.3c-9.1-0.1-15.8,5.1-30.7,35.3C139.2,213.6,141,227.5,140.7,232.8z"/>
	</g>
	<g>
		<path fill="#222222" d="M200.5,238.2c-5.4,0.6-7.7-1.4-7.1-8.3c4.1-10.7,6.1-39.7,26.2-70.1c16.9-30.7,51.8-62.8,49-86.6
			C267.5,62,257.2,58.3,252,57.8c-3.2-0.3-6.8,0.7-9.8,0.4c-7.3-0.5-11.6-6.2-12.6-11.5c-0.9-5,0.5-9.7,6.1-9
			c8.7,1.1,43.1,7.1,61,9.1c16.4,1.9,29.8,2.1,33.5,2.5c6.5,0.8,16,5.2,21.2,14.7c14.6,16.9,6,44.5,9.2,70.2
			c1.4,25.9,14.5,49.7,32.4,62.5c6.1,5.3,9.2,7.5,9.5,11c0.2,3.2-2,6.2-6.5,6.8c-7.2,0.9-26.2,1.2-45.8,3.5c-16,1.8-49.5,8-52.8,8.5
			c-6.5,0.8-13.5-3-17.7-8.3c-4.2-5.2-2.8-9.6,2.3-10.1c2.4-0.2,5.6,0.4,12.3-0.3c7.6-0.7,9.5-5.7,7.6-17.4
			c-0.5-17.8-2.7-19-33.1-17.4c-25,1.3-27.6,5.1-28.8,14.2c-0.8,18.3,18.1,21.1,25.7,32.2c3.9,5.3,6.3,10.1,0.3,10.8
			c-4.5,0.5-27.2,0.9-36.6,2.1C218.7,233.7,206.9,237.4,200.5,238.2z M291.4,154.5c26.7-0.8,31.6-5.2,35.1-12.3
			c5.8-11.5,16.2-42,7.7-57.8c-4.7-9.9-7.9-12-11.9-12.4c-8.2-1.3-21.6,35.6-44,67.2C272.1,151,271.3,155.1,291.4,154.5z"/>
	</g>
	<g>
		<path fill="#222222" d="M444.4,253.3c-4.6,2.5-8.6,1.8-9.4-3.4c-0.8-6.3-3.3-24.5-7.2-36.2c-3.5-10.7-8.2-18.2-10-23.4
			c-2.3-6.4-1.9-12.3,5.8-15.2c21.6-6.3,61.8,41.8,94.2,24.7c9.3-4.2,17.1-12.9,13.8-24.6c-3.3-10.7-11.3-15.6-49.4-12.2
			c-50.2,4.6-75.9-9.9-87.1-47.3c-8.9-33-4.9-71.2,43.6-75.6c37-3,53.2,15.1,64.7,14c4.9-0.3,7.9-2.1,7.5-5.1
			c-0.3-2.2-1-3.5-1.2-5.5c-0.4-5.3,4-8.2,9.3-8.2c7.1-0.1,9.9,2.4,10.5,9.6c0.8,8.2,0.8,14.6,3.1,24.1c1.4,6,5.1,16,6.2,19.5
			c1.9,6-0.4,10.1-6.9,11.1c-27.7,5.3-61.7-42-92-39.2c-13.5,1.9-19.4,11.2-15.1,24.2c4.1,12,12.5,19.5,49.6,21.7
			c56.5,3.8,85.9,15,91.7,43.5c5,29.3-14.5,52-45.3,67.2c-33.9,16.5-50.7,3.4-63.9,9c-5.4,2.5-7.5,6.4-6.8,10.3
			c0.2,1.4,1.1,3.4,1.3,5.1C452,246.4,448.7,250.9,444.4,253.3z"/>
	</g>
</g>
</svg>
