<?xml version="1.0" encoding="utf-8"?>
<!-- Generator: Adobe Illustrator 25.3.1, SVG Export Plug-In . SVG Version: 6.00 Build 0)  -->
<svg version="1.1" baseProfile="tiny" id="Layer_1" xmlns="http://www.w3.org/2000/svg" xmlns:xlink="http://www.w3.org/1999/xlink"
	 x="0px" y="0px" width="289.8px" height="297.9px" viewBox="0 0 289.8 297.9" overflow="visible" xml:space="preserve">
<g id="nQjSZM_7_">
	<g>
		<path fill="#222222" d="M275.9,57.6c6.6-4.5,8.3-10.8,6.8-18.5c-1.1-5.7-1.8-11.6-2.4-17.4c-0.9-7.9-7.7-15-17.6-13.4
			c-21.6,3.5-43.3,6.5-65,9.6c-11,1.6-21.9,3.1-32.5,4.7c-1-0.5-1.6-0.7-2-1.2c-9.6-10.6-15.2-11-26.9-2.5
			c-11.8,8.5-23.8,16.6-35.7,24.9c-2.8,1.9-5.8,3.7-8.3,6c-6.4,5.7-7.3,13.9-2.6,20.9c1.7,2.5,3.6,5,5.8,8
			c-13.5,10.1-26.6,20.1-40,29.8c-5.8,4.2-10.7,8.9-14.3,15.3c-10.1,18-20.8,35.6-31.2,53.5c-5.3,9.2-3.3,17.2,5.6,22.9
			c2.1,1.3,4.3,2.4,6.5,3.6c9.8,5.2,17.7,3.1,23.3-6.4c5.8-9.8,11.5-19.7,17.3-29.5c4-6.9,7.9-14,12.2-20.7c1.8-2.8,4.1-5.4,6.7-7.4
			c6.6-5.2,13.4-9.9,20.1-14.9c2.9-2.1,5.8-2.8,9.5-2.5c17.5,1.2,35,2.1,52.6,3.1c28.3,1.5,56.6,3,84.9,4.5c2.5,0.1,4.9,0.1,7.4,0.1
			c18.5,0.2,30-12.8,27.1-31c-1.9-11.9-4.1-23.7-6.2-35.6C276.3,61.5,276.2,59.7,275.9,57.6z M266,51.7c0.6,4.1,1,7.1,1.5,10.1
			c2.2,13.4,4.6,26.7,6.7,40.2c2,12.6-9.1,20-18,19.5c-43.3-2.5-86.7-4.9-130.1-7.3c-8.8-0.5-17.7-0.6-26.9-1
			c-3.1-5.6-6.7-11.9-10.4-18.5c3.6-2.7,7.6-5.7,11.5-8.7c6.5-5,6.5-5.9,2.1-12.7c-2.8-4.3-7-8-7-14c0.8-0.9,1.5-1.9,2.5-2.6
			c14.9-10.6,29.7-21.2,44.7-31.5c6.6-4.5,9-4.1,13.8,2.3c2.3,3.1,4.8,4.6,8.6,4c11-1.6,21.9-3.2,32.9-4.8c20.7-3,41.5-5.9,62.2-9.2
			c7.9-1.3,11.4,0.7,11.8,8.4c0.2,4.3,0.9,8.6,1.9,12.8C275.3,45.1,274.1,49.8,266,51.7z M15.3,188c1.2-2.8,2-5.6,3.5-8.2
			c10.4-18.1,20.9-36.2,31.4-54.2c1.1-1.8,2.4-3.7,4-4.9c8.5-6.6,17.1-13,26.1-19.8c4.3,6.7,8.3,12.8,12.3,19
			c-4.8,3.6-9.1,7.2-13.8,10.1c-5.7,3.5-9.7,8.3-13,14.1c-5.8,10.1-11.7,20.2-17.6,30.2c-4.7,7.9-9.5,15.6-14.2,23.2
			C25.9,197.3,20.6,193.6,15.3,188z"/>
		<path fill="#222222" d="M24.5,292.7c14.2-0.7,21.1-17.6,18.1-31.1c-2.8-12.4-7.9-23.1-14.2-32.8c-2.7-4.2-6.1-4-8.7,0.4
			c-5.8,9.5-11,19.6-13.6,31.6C2.5,277.4,11.5,293,24.5,292.7z M24.4,233.8c5.1,9.3,9.5,18,12.1,28.1c1.4,5.3,1.4,10.4-1,15.1
			c-3.8,7.5-11.4,10.2-17.4,6.2c-5.8-3.8-8.8-13.2-6.3-21.7C14.7,251.8,18.4,242.5,24.4,233.8z"/>
		<path fill="#222222" d="M253.9,53.6c-3.6-0.3-6.6-1-9.5-0.8c-18.7,1.4-37.4,2.9-56.1,4.5c-11.8,1-17.8,7.3-19.4,16.7
			c-2.3,13.3-1,21.3,9.6,27.4c2.3,1.4,5.1,2.5,7.7,2.8c20.8,2.2,41.6,4.2,62.5,6.1c8.8,0.8,13.9-3.4,12.8-11.4
			C259.4,84,256.5,69.2,253.9,53.6z M184,95c6.6-6.5,12.7-10.1,20.4-10.6c12.5-0.9,25.1-1.9,37.6-2.8c2.3-0.2,4.7,0.1,7.6,0.2
			c1.1,6.6,2.1,12.7,3.3,19.8C229.6,99.3,207.4,97.2,184,95z M177.1,87.8c0.1-3.4,0.1-4.9,0.1-6.4c0.1-10.6,3.5-14.3,14.1-15.4
			c5.2-0.5,10.4-0.9,15.7-1.3c12.9-1,25.7-1.9,39.4-2.9c0.4,3.7,0.7,6.8,1.1,10.5c-14.6,1.1-28.1,2.4-41.5,3.2
			c-8.6,0.5-16.4,2.7-23.2,8.2C181.4,84.7,179.9,85.7,177.1,87.8z"/>
		<path fill="#222222" d="M164.3,103.9c0.5-3.6-1.1-6.1-4.8-6.2c-8.3-0.3-16.6-0.3-24.8-0.1c-1.4,0-3.4,1.7-4,3.1
			c-0.5,1.3,0.4,3.2,0.7,4.7C147.9,107.6,158.2,107.1,164.3,103.9z"/>
		<path fill="#222222" d="M124.8,104c-4.4-6.7-8.9-7.2-17.3-2.6c-0.7,2.9,0.6,5,3.3,5.5C115.5,107.9,120.4,108.7,124.8,104z"/>
	</g>
</g>
</svg>
