<?xml version="1.0" encoding="utf-8"?>
<!-- Generator: Adobe Illustrator 25.3.1, SVG Export Plug-In . SVG Version: 6.00 Build 0)  -->
<svg version="1.1" baseProfile="tiny" id="Layer_1" xmlns="http://www.w3.org/2000/svg" xmlns:xlink="http://www.w3.org/1999/xlink"
	 x="0px" y="0px" width="394.8px" height="303px" viewBox="0 0 394.8 303" overflow="visible" xml:space="preserve">
<g id="gaI4yg_7_">
	<g>
		<path fill="#222222" d="M295.2,184.9c13.5,3.5,27.1,6.6,40.4,10.7c9.2,2.8,17.8,7.4,23.4,15.8c2.9,4.3,6.4,4,10.5,2.8
			c9.3-2.9,13.6-13.4,8.4-21.7c-10.8-17.4-26.5-28.4-46-34.1c-10.7-3.1-21.4-6.5-32.3-9.1c-5.1-1.3-8.7-3.1-10.1-8.6
			c-1.6-6.4-6.4-10.1-12.4-11.8c-4.4-1.3-6.2-4-7.7-8.1c-3.6-9.3-7.3-18.6-12.2-27.3c-13.3-23.7-27-47.2-41-70.5
			c-10.7-17.8-28.2-22-46.4-11.5C125.4,36.9,81.2,62.6,37,88.5c-7.2,4.2-14.2,9-20.8,14.2C2.3,113.3,1,126.8,10.9,141.2
			c6.5,9.5,11.9,19.7,17.8,29.7c17.5,29.6,34.8,59.3,52.5,88.8c3,5,7.3,9.6,11.8,13.4c8.5,7.2,18.5,9.8,29,5.5
			c8.1-3.2,16-7.3,23.4-11.8c21.8-13.2,43.3-27.1,65.2-40.2c9.9-5.9,20.7-10.4,30.9-15.7c3.5-1.8,7.5-3.7,9.9-6.6
			c6.3-7.8,13.6-12.9,23.4-16.3c7.1-2.5,13.5-3.8,20.6-3.1l0.3-0.8L295.2,184.9z M101.6,64.6c0,0,0.1,0.1,0.1,0.1
			c23-13.7,46-27.3,69.1-40.9c3.1-1.8,6.1-3.8,9.5-5.2c8.2-3.3,16-2.1,22.1,4.2c4.3,4.5,7.6,10.2,10.9,15.6
			c2.7,4.4,4.6,9.3,7.2,13.7c13.5,23.1,27.3,46,40.4,69.3c3,5.3,5.6,12.1,5,17.9c-1.5,13-4.5,26-8.2,38.6
			c-3.7,12.4-11.7,21.3-24.6,25.7c-8.6,2.9-17.2,6.6-25.1,11.1c-25.2,14.7-50.2,29.7-75,45c-21.5,13.3-31.7,11.1-45.1-10.6
			c-0.4-0.7-0.8-1.4-1.2-2.1c-15.3-25.8-30.4-51.6-45.9-77.3c-7.2-11.9-14.9-23.6-22.6-35.2c-3.5-5.3-4.1-10.8-0.4-15.6
			c3.6-4.6,7.9-9.1,12.9-12.1C54.1,92.6,77.9,78.7,101.6,64.6z M294.4,156.8c11.3,3.5,22.6,7.4,34,10.6
			c16.9,4.6,29.8,14.6,40.1,28.3c1.5,2,2.3,6.8,1.1,8.1c-3,3.3-6,1.3-8.7-2c-8.8-11.1-20.8-17-34.1-20.4c-12.3-3.2-24.7-6-38.5-9.3
			C290.2,167.5,292.1,162.8,294.4,156.8z M273.5,139.4c8.8,4.1,10.8,9.2,9,21.5c-2.5,16.8-5.1,20.4-15.6,21.7
			C269,168.2,271.3,153.8,273.5,139.4z"/>
		<path fill="#222222" d="M390.3,272.3c-1-2.9-2.6-8.6-5-13.9c-2.1-4.6-5.2-8.9-7.8-13.3c-5.1-8.3-6.7-8.7-12.9-1.9
			c-7.4,8.1-12.1,17.8-14,28.4c-1.5,8.7,1.6,16.7,9.1,21.8c6.2,4.2,13.1,5.7,20.2,1.7C387.5,290.8,390.4,283.8,390.3,272.3z
			 M369.4,250.5c1,0.1,2.1,0.2,3.1,0.3c5,8.4,9.9,16.9,8.7,27.4c-0.6,5.3-3.8,9-8.9,9.7c-4.5,0.6-8.8-1.4-10.6-6
			c-1.2-3.1-2.5-7.1-1.5-10C362.6,264.5,366.3,257.6,369.4,250.5z"/>
		<path fill="#222222" d="M148.5,169.5c8.1,1.6,15.9,3.4,23.7,4.7c10.3,1.7,17.4-1.2,19.2-7.6c1.8-6.2-1.8-11.3-12-15.3
			c-8.1-3.2-16.6-5.3-26-8.1c1.4-6.1,2.8-12.3,4.2-18.4c0.8-3.5,1.8-7,1.8-10.6c0.1-6.3-4.6-12.6-9.7-13.6c-5-1-10.7,1.8-13.5,7.7
			c-2.4,5-3.8,10.5-5.5,15.8c-1.3,4.1-2.3,8.3-3.5,12.9c-7.6-1.8-14.1-3.9-20.7-4.6c-5.4-0.6-11.2-0.5-16.4,0.8
			c-6.2,1.6-8.2,6.7-4.3,11.9c3.1,4.2,7.8,7.8,12.5,10.1c6.8,3.3,14.2,5.2,22.5,8c-0.9,5.7-2.3,13.8-3.3,21.9c-0.5,4.3-0.8,8.9,0,13
			c1.1,5.3,4.6,9.2,10.6,9.9c6.3,0.8,10-2.6,11.8-7.9c2-6,3-12.3,4.7-18.5C145.9,177.4,147.4,173.3,148.5,169.5z M92.2,140.3
			c2.1-0.2,4.5-1,6.5-0.5c8.6,1.8,17.1,3.7,25.6,6c9.2,2.4,9.7,2.4,12.3-7.1c2-7.3,3.6-14.7,5.9-22c0.8-2.6,3-4.8,4.6-7.2
			c4.9,14.3-1.5,26.9-2.6,40.4c12.1,6.1,27.7,3.9,38.3,15.1c-3.5,1.6-6.9,2.2-10.1,1.7c-7.9-1.2-15.7-2.7-23.5-4.7
			c-5.7-1.5-9.1-0.9-9.8,6c-0.7,5.9-2.4,11.7-3.8,17.5c-0.8,3.5-1.3,7.1-2.6,10.4c-0.6,1.5-2.8,3.3-4.2,3.2c-1.2-0.1-3-2.4-3.3-4
			c-0.6-2.7-0.5-5.6-0.1-8.3c1.2-7.5,2.4-15,4.3-22.3c1.4-5.4,0.1-7.9-5.5-9.2c-8.5-2-16.9-4.7-25.2-7.5
			C95.8,146.8,91.7,146,92.2,140.3z"/>
		<path fill="#222222" d="M211,56.1c-4-5-8.4-11.7-14.1-17.1c-6.9-6.5-16.5-6.2-24.3-0.7c-5.9,4.1-12.1,7.9-17.4,12.6
			c-3,2.7-6.2,6.8-6.6,10.5c-0.4,4.9,3.7,8.5,8.6,10.2c2.2,0.8,4.6,1.5,6.9,1.8c16.2,2.3,32.4,4.5,48.6,6.5c5.9,0.7,8.6-2.1,6.7-7.6
			C217.5,67.2,214.4,62.5,211,56.1z M208.1,70.7c-14.9-0.5-43.7-7.2-48.7-11.3c5.4-4.1,10.8-8.1,16.1-12.2
			c6.9-5.2,11.5-5.3,17.9,0.9C200,54.4,205.2,61.7,208.1,70.7z"/>
	</g>
</g>
</svg>
