<?xml version="1.0" encoding="utf-8"?>
<!-- Generator: Adobe Illustrator 25.3.1, SVG Export Plug-In . SVG Version: 6.00 Build 0)  -->
<svg version="1.1" baseProfile="tiny" id="Layer_1" xmlns="http://www.w3.org/2000/svg" xmlns:xlink="http://www.w3.org/1999/xlink"
	 x="0px" y="0px" width="211.9px" height="224.6px" viewBox="0 0 211.9 224.6" overflow="visible" xml:space="preserve">
<path fill="#222222" d="M137.5,219c-1.1-0.6-2.2-1.2-3.3-1.8c-2.7-1.4-5.4-2.9-8.1-4.4c-6.2-3.5-12.6-7.4-17.3-13.2
	c-1-1.2-2.1-1.8-3.2-1.8c-1.6,0-2.7,1.1-3.5,2.1c-4.8,6-11.5,9.9-17.3,13.2c-2.6,1.4-5.2,2.8-7.8,4.2l-3.1,1.7l-3.1,0
	c-1.2-1.4-1.2-2.7-0.1-4.4c2.5-4,5-8.1,7.4-12c1-1.7,4.4-7.3,4.4-7.3c0.3-0.5,0.4-1.2,0.1-1.8c-0.3-0.6-0.8-0.9-1.5-1
	c-0.3,0-0.6-0.1-0.9-0.1c-0.6-0.1-1.3-0.2-2-0.2c-0.2,0-0.3,0-0.5,0c-1.4,0.1-2.9,0.3-4.3,0.4c-1.9,0.2-3.9,0.4-5.8,0.5
	c-1.4,0.1-2.9,0.1-4.3,0.1c-15.3,0-29.9-2.9-42.2-5.8c-2.5-0.6-5.1-1.3-7.6-2.1c-2-0.6-3.9-1.1-5.9-1.7c-2.3-0.6-2.4-1.7-2.4-2.2
	c0-0.7,0.2-1.6,2.3-2.4c13.3-4.6,25.5-7.7,37.2-9.5c1.4-0.2,2.9-0.4,4.3-0.5c1.6-0.2,3.2-0.4,4.8-0.6c1-0.2,2-0.6,2.8-0.9
	c0.3-0.1,0.7-0.3,1-0.4c0.5-0.2,0.9-0.6,1.1-1.2c0.2-0.5,0.1-1.1-0.2-1.6c-0.2-0.3-0.4-0.6-0.5-0.8c-0.5-0.8-1-1.6-1.7-2.3
	c-2.8-2.5-4.9-4.4-7.1-6c-9.1-7-15.8-16.3-22.4-25.4c-8.2-11.4-15.7-24.3-22.9-39.4l-0.2-0.4c-0.5-1-0.9-1.9-1.3-2.9
	c-0.3-0.9-0.2-2,0.4-2.8c0.4-0.5,0.8-0.8,1.4-0.8c0.4,0,0.8,0.1,1.3,0.4c1.7,0.8,3.5,1.5,5.2,2.2c1.4,0.6,2.9,1.1,4.3,1.8
	c10.6,5,23,11.1,34.3,18.8c7.6,5.3,14.7,11.1,21.9,17.1c1.9,1.6,3.6,3.6,5.3,5.6c1,1.1,1.9,2.3,2.9,3.4c0.6,0.7,1.4,1.2,2,1.6
	c0.3,0.2,0.5,0.3,0.7,0.5c0.3,0.2,0.7,0.4,1.1,0.4c0.3,0,0.5-0.1,0.8-0.2c0.6-0.3,1-0.8,1.1-1.5c0-0.3,0.1-0.7,0.1-1
	c0.1-0.9,0.2-1.8,0.2-2.8c-0.1-1.1-0.3-2.2-0.4-3.3c-0.2-1.2-0.4-2.4-0.4-3.6c-0.5-9.9-0.8-18.1-1.1-25.8
	c-0.4-12.5,1.9-24.8,4.3-36.4c3.5-17,8.5-34.3,15.1-51.5l0.2-0.6c0.7-2,1-2.5,2.2-2.5c1.8,0,1.9,0.3,2.1,0.9
	c0.4,1.2,0.8,2.3,1.3,3.3c0.3,0.8,0.6,1.5,0.9,2.3c7.3,20.1,12.4,38.7,15.6,56.8c1.5,8.4,2.3,16.7,2.4,24.9c0.1,8-0.3,16.2-0.7,24.1
	c-0.1,2.7-0.3,5.4-0.4,8.2c0,0.9-0.2,1.9-0.5,2.9c-0.2,0.7-0.3,1.5-0.4,2.2c-0.1,0.8,0.1,1.4,0.3,1.9c0,0.1,0.1,0.2,0.1,0.3
	c0.1,0.5,0.5,1,1,1.2c0.2,0.1,0.5,0.2,0.8,0.2c0.3,0,0.5-0.1,0.8-0.2c0.1,0,0.2-0.1,0.3-0.1c0.4-0.2,1.1-0.4,1.6-0.9
	c3-3,6.1-6.1,9.2-9.3c8.6-9,19.5-17,34.2-25.3c6.5-3.6,13.4-7,20-10.2c2.8-1.4,5.6-2.7,8.4-4.1c0.4-0.2,0.9-0.4,1.4-0.6
	c0.7-0.3,1.4-0.5,2.2-0.9c0.4-0.2,0.8-0.3,1.1-0.3c0.6,0,1.1,0.4,1.3,0.7c0.5,0.7,0.7,1.7,0.5,2.5c-0.3,1.1-0.8,2.2-1.4,3.4
	l-0.1,0.3c-6.2,13-13.6,25.8-21.9,38.1c-6.9,10.1-13.7,18.3-20.8,24.9c-2.3,2.1-4.8,4.2-7.3,6.1c-1.4,1.2-2.9,2.3-4.3,3.5
	c-0.6,0.5-0.9,1.1-1.2,1.7c-0.1,0.2-0.2,0.3-0.3,0.5c-0.3,0.5-0.4,1.1-0.2,1.7c0.2,0.5,0.7,1,1.3,1.1c0.2,0,0.4,0.1,0.5,0.2
	c0.5,0.2,1.1,0.3,1.7,0.4c17.5,1.3,34,6.2,47.8,10.7c0.6,0.2,1.1,0.4,1.6,0.7c1.1,0.7,1.5,1.5,1.3,2.9c0,0.5-0.1,0.7-1.6,1.1
	c-1.8,0.5-3.6,1-5.5,1.5c-4.5,1.2-9.2,2.5-13.8,3.5l-3.3,0.7c-6.7,1.4-13.6,2.9-20.3,3.3c-2.1,0.1-4.3,0.2-6.8,0.2
	c-4.2,0-8.5-0.2-12.6-0.4c-3-0.1-6-0.3-9-0.3c0,0,0,0,0,0c-0.8,0-1.5,0.1-2.1,0.2c-0.2,0-0.5,0.1-0.7,0.1c-0.6,0.1-1.1,0.4-1.4,1
	c-0.3,0.5-0.3,1.2,0,1.7l0.3,0.6c0.2,0.5,0.5,1,0.8,1.5c2.2,3.5,4.5,7,6.7,10.4l3.2,5c1.7,2.6,2.2,4.4,1.6,6.2H137.5z M93.7,184.9
	c1,0,1.7,0.4,2.3,1.5c0.4,0.7,0.6,1.5-0.6,2.7c-1,1-2,2-3,3c-4.2,4-8.4,8.4-11.1,13.9l-0.2,0.4c-0.4,0.9-0.1,1.9,0.7,2.4
	c0.3,0.2,0.6,0.2,0.9,0.2c0.5,0,1-0.2,1.3-0.6c0.4-0.1,0.9-0.2,1.4-0.5c6.5-3.7,13.7-8.5,18.3-16.9c0.7-1.2,1.4-1.9,2-1.9
	c0.7,0,1.6,0.7,2.5,1.9c0.5,0.7,0.9,1.4,1.4,2.1c3.9,6.5,10,10.5,16.3,14.3c0.6,0.3,1.2,0.5,1.6,0.5c0.1,0,0.2,0,0.4,0.1
	c0.2,0,0.3,0.1,0.5,0.1c0.5,0,1-0.2,1.3-0.6c0.5-0.5,0.6-1.2,0.4-1.9c0-0.1-0.1-0.3-0.1-0.4c-0.1-0.5-0.3-1.3-0.8-1.9
	c-4.6-5.5-8.8-10.3-12.7-14.7c-1.3-1.5-1.2-1.6-0.9-2.1c0.7-1.2,1.4-1.4,2-1.4c0.2,0,0.4,0,0.6,0.1c1.2,0.2,2.4,0.4,3.5,0.6
	c3.2,0.6,6.5,1.2,9.8,1.6c6.6,0.7,13.1,1.2,19.4,1.5c0.2,0,0.4,0,0.5,0c1.5,0,2.9-0.2,4.3-0.5c1.2-0.2,2.3-0.4,3.3-0.4
	c9.6-0.3,18.9-2.4,27.9-4.4c0.5-0.1,1-0.3,1.3-0.5l0.4-0.2c0.6-0.2,1-0.8,1.1-1.4c0.1-0.6-0.1-1.3-0.6-1.7c-0.1-0.1-0.2-0.2-0.3-0.3
	c-0.4-0.5-1-1.2-2-1.4c-2.2-0.5-4.5-1-6.7-1.5c-6.4-1.4-13.1-2.9-19.7-3.9c-4.8-0.7-9.6-0.9-14.4-1c-1.9-0.1-3.8-0.1-5.7-0.2
	c-2.1-0.1-2.4-0.3-2.7-1.1c-0.3-1.1-0.2-1.9,1.3-2.9c3.2-2.2,6.2-4.1,8.9-6.4c1.6-1.3,3.2-2.6,4.8-3.8c4.8-3.8,9.9-7.8,14.2-12.4
	c8-8.3,15.2-18.1,22.1-29.8c2.8-4.7,5.4-9.5,8-14.2l2-3.7c0.4-0.7,0.4-1.4,0.4-1.8c0-0.1,0-0.2,0-0.3c0.1-0.6-0.1-1.1-0.5-1.5
	c-0.3-0.3-0.8-0.5-1.3-0.5c-0.1,0-0.1,0-0.2,0c-0.1,0-0.2,0-0.3,0c-0.5,0-1.1,0-1.8,0.4c-2.4,1.2-4.8,2.5-7.2,3.7
	c-5.9,3-11.9,6.1-17.7,9.4c-17,9.9-31.5,22.8-43,38.3c-0.8,1-1.5,2.1-2.3,3.1c-1.4,2-2.9,4-4.4,5.9c-0.9,1.1-1.4,1.2-1.7,1.2
	c-0.2,0-0.5-0.1-0.8-0.2c-1-0.4-1.5-1-1.2-3c0.1-0.5,0.2-1.1,0.4-1.7c0.1-0.4,0.3-0.9,0.4-1.3c3.3-14.3,5.1-27.3,5.7-39.7
	c0.7-16.8-0.8-33-4.5-48.1c-2.4-9.6-5.2-19.3-7.9-28.6c-1.1-3.6-2.1-7.3-3.2-10.9c-0.2-0.9-0.8-1.4-1.3-1.8
	c-0.1-0.1-0.2-0.2-0.3-0.3c-0.4-0.4-0.9-0.6-1.4-0.6c-0.1,0-0.2,0-0.3,0c-0.6,0.1-1.2,0.5-1.4,1.1l-0.2,0.4
	c-0.2,0.4-0.3,0.8-0.5,1.1c-5.4,14.9-9.1,28.6-11.6,41.8C89,74.9,87.6,85,86.8,94.4c-0.3,4.3,0,8.6,0.3,12.8
	c0.2,2.4,0.4,4.9,0.4,7.3c0.3,11.3,2.6,22.5,4.8,33.2l0.3,1.7c0.2,1,0.5,2.5,0.3,3.5c-0.2,0.8-0.6,1.6-0.8,2c0,0-0.1,0-0.1,0
	c-0.7,0-1.7-0.4-2.5-0.9c-0.4-0.3-0.9-1-1.3-1.8c-0.2-0.4-0.5-0.8-0.7-1.2c-8.2-12-16.7-21.6-26-29.4c-15.2-12.8-32.2-21.7-45.3-28
	c-0.6-0.3-1.3-0.4-1.8-0.5c-0.2,0-0.4-0.1-0.5-0.1c-0.1,0-0.3,0-0.4,0c-0.5,0-0.9,0.2-1.3,0.5c-0.4,0.4-0.6,1-0.5,1.6
	c0,0.2,0,0.3,0.1,0.5c0,0.6,0.1,1.4,0.5,2.1c1.5,2.5,2.9,5,4.4,7.5c3.8,6.4,7.6,13.1,11.8,19.4c7.1,10.7,16.4,20.6,29.5,31.4
	c2.5,2,5.1,3.9,7.6,5.8c2.3,1.7,4.8,3.5,7,5.3c0.9,0.7,1.6,2.2,1.6,2.9c-0.1,1.4-2.1,1.5-2.6,1.5c-0.8,0-1.6,0.1-2.4,0.1
	c-0.4,0-0.8,0-1.3,0c-1,0-2,0-3,0c-12.1,0-24.6,2-40.5,6.5c-0.4,0-1.1,0.1-1.7,0.6c-1,0.9-0.7,2.4-0.7,2.6c0.1,0.6,0.6,1.3,1.3,1.5
	c1.1,0.4,2.2,0.8,3.4,1l2.8,0.5c5.9,1,11.9,2,17.9,2.9c5.3,0.8,10.7,1.2,16,1.2c5.3,0,10.8-0.4,16.2-1.2l2.3-0.3
	c3.6-0.5,7.4-1.1,11.1-1.7C93.2,184.9,93.4,184.9,93.7,184.9z"/>
</svg>
