<?xml version="1.0" encoding="utf-8"?>
<!-- Generator: Adobe Illustrator 25.3.1, SVG Export Plug-In . SVG Version: 6.00 Build 0)  -->
<svg version="1.1" baseProfile="tiny" id="Layer_1" xmlns="http://www.w3.org/2000/svg" xmlns:xlink="http://www.w3.org/1999/xlink"
	 x="0px" y="0px" width="429.2px" height="437.6px" viewBox="0 0 429.2 437.6" overflow="visible" xml:space="preserve">
<path fill="none" d="M24.7,274.6c27.7-19.3,67.8-35,112.8-39.1c78.8-7.2,134,33.4,165.8,39.1c49.6,8.9,114.6-14.2,150.5-58.6"/>
<text transform="matrix(1.0112 -0.5604 0.4847 0.8747 23.478 274.2481)" fill="#222222" font-family="'Bree-Bold'" font-size="53.5762px">A</text>
<text transform="matrix(1.0866 -0.3949 0.3416 0.9399 58.5956 255.2389)" fill="#222222" font-family="'Bree-Bold'" font-size="53.5762px">l</text>
<text transform="matrix(1.1358 -0.2157 0.1866 0.9824 88.2672 243.6861)" fill="#222222" font-family="'Bree-Bold'" font-size="53.5762px">w</text>
<text transform="matrix(1.1561 6.684408e-03 -5.781759e-03 1 137.4661 234.5594)" fill="#222222" font-family="'Bree-Bold'" font-size="53.5762px">a</text>
<text transform="matrix(1.1365 0.2118 -0.1832 0.9831 177.2656 234.974)" fill="#222222" font-family="'Bree-Bold'" font-size="53.5762px">y</text>
<text transform="matrix(1.0976 0.3632 -0.3141 0.9494 213.4511 241.9536)" fill="#222222" font-family="'Bree-Bold'" font-size="53.5762px">s</text>
<text transform="matrix(1.0737 0.4286 -0.3707 0.9287 245.9527 253.1348)" fill="#222222" font-family="'Bree-Bold'" font-size="53.5762px"> </text>
<text transform="matrix(1.0701 0.4377 -0.3786 0.9256 258.5117 258.3344)" fill="#222222" font-family="'Bree-Bold'" font-size="53.5762px">O</text>
<text transform="matrix(1.1561 7.116577e-03 -6.155569e-03 1 306.764 276.4247)" fill="#222222" font-family="'Bree-Bold'" font-size="53.5762px">p</text>
<text transform="matrix(1.1188 -0.2915 0.2522 0.9677 349.5276 275.3229)" fill="#222222" font-family="'Bree-Bold'" font-size="53.5762px">e</text>
<text transform="matrix(1.0164 -0.5509 0.4765 0.8792 387.8192 264.9836)" fill="#222222" font-family="'Bree-Bold'" font-size="53.5762px">n</text>
<text transform="matrix(1 0 0 1 49.873 181.9747)" fill="#222222" font-family="'JuniperStd'" font-size="229.1574px">2</text>
<text transform="matrix(1 0 0 1 183.2421 181.9747)" fill="#222222" font-family="'JuniperStd'" font-size="229.1574px">4</text>
<text transform="matrix(1 0 0 1 117.0155 429.9742)" fill="#222222" font-family="'JuniperStd'" font-size="229.1574px">7</text>
</svg>
